<?xml version="1.0" encoding="utf-8"?>
<!-- Generator: Adobe Illustrator 27.1.1, SVG Export Plug-In . SVG Version: 6.00 Build 0)  -->
<svg version="1.1" id="Layer_1" xmlns="http://www.w3.org/2000/svg" xmlns:xlink="http://www.w3.org/1999/xlink" x="0px" y="0px"
	 viewBox="0 0 82.2 75.5" style="enable-background:new 0 0 82.2 75.5;" xml:space="preserve">
<path style="fill:#FF253F;" d="M78.7,0.9L67.9,0.7L57.2,0.4L46.4,0.1L41,0l-5.4,0.1L24.9,0.4L14.2,0.7L3.4,0.9L0.2,1
	C0.1,1,0,1.1,0,1.2v3.2c0,0.1,0.1,0.2,0.2,0.2c2.1,0.8,3.2,2.6,3.3,5.5v44.8c0,0.2,0.1,0.3,0.2,0.4l10.5,5.5L25,66.5l10.8,5.7
	l5.1,2.7c0.2,0.1,0.4,0.1,0.6,0l5.1-2.7l10.7-5.7l10.8-5.7l10.5-5.6c0.1-0.1,0.2-0.2,0.2-0.4v-31l-6.5-0.2L68,23.5l-10.8-0.3
	l-10.7-0.3L36,22.6c-0.1,0-0.2-0.1-0.2-0.2V6.8c0-0.1,0.1-0.2,0.2-0.2l5-0.1l5.2,0.1c0.1,0,0.2,0.1,0.2,0.2v9.7
	c0,0.1,0.1,0.2,0.2,0.2L57.2,17L68,17.3l4.3,0.1l6.2,0.2c0.1,0,0.2-0.1,0.2-0.2v-7.1c0.1-3,1.1-4.8,3.3-5.5c0.1,0,0.2-0.1,0.2-0.2
	V1.4C82.1,1.1,82,1,81.8,1L78.7,0.9z M46.4,29.8v35c0,0.1,0,0.2-0.1,0.2l-4.9,2.6c-0.2,0.1-0.4,0.1-0.6,0l-5-2.6
	c-0.1,0-0.1-0.1-0.1-0.2V29.6c0-0.1,0.1-0.2,0.2-0.2l10.3,0.2C46.3,29.6,46.4,29.7,46.4,29.8z"/>
</svg>
