<?xml version="1.0" encoding="utf-8"?>
<!-- Generator: Adobe Illustrator 27.1.1, SVG Export Plug-In . SVG Version: 6.00 Build 0)  -->
<svg version="1.1" id="Layer_1" xmlns="http://www.w3.org/2000/svg" xmlns:xlink="http://www.w3.org/1999/xlink" x="0px" y="0px"
	 viewBox="0 0 281.5 75.5" style="enable-background:new 0 0 281.5 75.5;" xml:space="preserve">
<path style="fill:#FFFFFF;" d="M78.7,0.9L67.9,0.7L57.2,0.4L46.4,0.1L41,0l-5.4,0.1L24.9,0.4L14.2,0.7L3.4,0.9L0.2,1
	C0.1,1,0,1.1,0,1.2v3.2c0,0.1,0.1,0.2,0.2,0.2c2.1,0.8,3.2,2.6,3.3,5.5v44.8c0,0.2,0.1,0.3,0.2,0.4l10.5,5.5L25,66.5l10.8,5.7
	l5.1,2.7c0.2,0.1,0.4,0.1,0.6,0l5.1-2.7l10.7-5.7l10.8-5.7l10.5-5.6c0.1-0.1,0.2-0.2,0.2-0.4v-31l-6.5-0.2L68,23.5l-10.8-0.3
	l-10.7-0.3L36,22.6c-0.1,0-0.2-0.1-0.2-0.2V6.8c0-0.1,0.1-0.2,0.2-0.2l5-0.1l5.2,0.1c0.1,0,0.2,0.1,0.2,0.2v9.7
	c0,0.1,0.1,0.2,0.2,0.2L57.2,17L68,17.3l4.3,0.1l6.2,0.2c0.1,0,0.2-0.1,0.2-0.2v-7.1c0.1-3,1.1-4.8,3.3-5.5c0.1,0,0.2-0.1,0.2-0.2
	V1.4C82.1,1.1,82,1,81.8,1L78.7,0.9z M46.4,29.8v35c0,0.1,0,0.2-0.1,0.2l-4.9,2.6c-0.2,0.1-0.4,0.1-0.6,0l-5-2.6
	c-0.1,0-0.1-0.1-0.1-0.2V29.6c0-0.1,0.1-0.2,0.2-0.2l10.3,0.2C46.3,29.6,46.4,29.7,46.4,29.8z M111.1,16.5h-4.7v-3.6h10.2V8.7H102
	v20.8h9c4.6,0,7.2-2.4,7.2-6.5C118.1,18.7,115.7,16.5,111.1,16.5z M113.6,22.9c0,1.6-1,2.4-2.9,2.4h-4.4v-4.7h4.6
	C112.8,20.6,113.6,21.3,113.6,22.9z M136.8,24.2v-0.1h-4.6v0.1c-0.5,1.2-1.9,2-3.5,2c-2.2,0-3.8-1.4-4.1-3.6H137v-0.1
	c0.2-2.8-0.6-5.3-2.2-7.1c-1.5-1.7-3.7-2.5-6.1-2.5c-4.9,0-8.5,3.6-8.5,8.6c0,4.9,3.6,8.5,8.6,8.5C132.7,29.8,135.7,27.7,136.8,24.2
	z M124.9,19.2c0.6-1.7,1.9-2.7,3.7-2.7s3.1,1,3.7,2.7H124.9z M156.7,21.3c0-4.9-3.1-8.5-7.5-8.5c-2,0-3.8,0.8-5,2.4v-2h-4.4v23.7
	h4.4v-9.3c1.3,1.5,2.9,2.3,5,2.3C153.5,29.8,156.7,26.2,156.7,21.3z M144.2,21.3c0-2.5,1.7-4.3,4-4.3s4,1.8,4,4.3s-1.6,4.3-4,4.3
	S144.2,23.8,144.2,21.3z M163.9,22.6l6.4,6.8l0.1,0.1h5.7l-8-8.6l7.5-7.8h-5.7l-6,6.5v-6.5h-4.4v16.4h4.4V22.6z M184.6,29.8
	c4.9,0,8.5-3.7,8.5-8.5s-3.7-8.5-8.5-8.5s-8.5,3.8-8.5,8.5C176.1,26.1,179.8,29.8,184.6,29.8z M184.6,17c2.3,0,4.1,1.8,4.1,4.3
	s-1.7,4.3-4.1,4.3c-2.3,0-4.1-1.8-4.1-4.3S182.3,17,184.6,17z M210.5,24.7c0-2-1-3.5-2.8-4.1c1.2-0.8,1.9-1.7,1.9-3.3
	c0-2.8-1.9-4.2-5.9-4.2h-7.9v16.4h8.7C208.4,29.5,210.5,27.7,210.5,24.7z M203.5,19.5h-3.1v-2.9h3.1c1.5,0,1.8,0.6,1.8,1.5
	C205.3,19.1,204.7,19.5,203.5,19.5z M204.2,22.7c1.3,0,1.8,0.5,1.8,1.6c0,1.2-0.5,1.6-1.8,1.6h-3.9v-3.2H204.2z M224.8,19.3
	l-0.3,4.3v5.9h4.5V13.1h-5l-6.5,10.1l0.2-4.3v-5.8h-4.4v16.4h5L224.8,19.3z M242.1,29.5h4.4V13.1h-4.4v7.3c-0.7,0.3-1.7,0.5-2.8,0.5
	c-2.3,0-3-0.7-3-3v-4.8h-4.4V19c0,4.9,3.6,6,6.6,6c1.3,0,2.5-0.2,3.6-0.6L242.1,29.5L242.1,29.5z M105.6,56.5l0.2-4.3v-5.8h-4.4
	v16.3h5l6.5-10.2l-0.3,4.4v5.8h4.5V46.4h-5L105.6,56.5z M129,62.7h4.5V50.6h6.7v12.1h4.4V46.4H129L129,62.7z M159.9,48.4
	c-1.2-1.6-3-2.4-5-2.4c-4.3,0-7.5,3.6-7.5,8.5s3.1,8.5,7.5,8.5c2,0,3.7-0.8,4.9-2.3v2h4.4V46.3h-4.4v2.1L159.9,48.4z M155.9,58.9
	c-2.3,0-4-1.8-4-4.3s1.6-4.3,4-4.3c2.3,0,4,1.8,4,4.3S158.2,58.9,155.9,58.9z M177.3,46c-2,0-3.8,0.8-5,2.4v-2h-4.4v23.7h4.4v-9.3
	c1.3,1.5,2.9,2.3,5,2.3c4.3,0,7.5-3.6,7.5-8.5S181.6,46,177.3,46z M180.3,54.5c0,2.5-1.6,4.3-4,4.3s-4-1.8-4-4.3s1.7-4.3,4-4.3
	C178.7,50.2,180.3,52,180.3,54.5z M186.3,50.6h4.9v12.1h4.5V50.6h4.9v-4.2h-14.3L186.3,50.6z M214.1,52.3h-7v-5.9h-4.4v16.3h4.4
	v-6.2h7v6.2h4.4V46.4h-4.4V52.3z M229.9,46c-4.9,0-8.5,3.6-8.5,8.6c0,4.9,3.6,8.5,8.6,8.5c3.9,0,6.9-2.1,8-5.6v-0.1h-4.6v0.1
	c-0.5,1.2-1.9,2-3.5,2c-2.2,0-3.8-1.4-4.1-3.6h12.4v-0.1c0.2-2.8-0.6-5.3-2.2-7.1C234.5,46.9,232.3,46,229.9,46L229.9,46z
	 M229.8,49.7c1.8,0,3.1,1,3.7,2.7h-7.4C226.7,50.7,228,49.7,229.8,49.7z M250.4,46c-2,0-3.8,0.8-5,2.4v-2H241v23.7h4.4v-9.3
	c1.3,1.5,2.9,2.3,5,2.3c4.3,0,7.5-3.6,7.5-8.5S254.7,46,250.4,46L250.4,46z M253.4,54.5c0,2.5-1.6,4.3-4,4.3s-4-1.8-4-4.3
	s1.7-4.3,4-4.3S253.4,52,253.4,54.5z M277,46.4h4.4v16.4H277V46.4z M269.1,51.1h-4v-4.7h-4.4v16.4h8.3c3,0,6.1-1.6,6.1-6
	C275.1,53.2,272.9,51.1,269.1,51.1z M268.9,55c1.2,0,1.8,0.5,1.8,1.8c0,1.2-0.6,1.7-1.8,1.7h-3.7V55C265.2,55,268.9,55,268.9,55z"/>
</svg>
